# xmcd
#
# Track frame offsets: 
#        150
#        20885
#        44250
#        68764
#        92548
#        112562
#        133004
#        196898
#        226850
#        251787
#        274909
#        305347
#        332364
#
# Disc length: 4742 seconds
#
# Revision: 0
# Processed by: cddbd v1.5.2PL0 Copyright (c) Steve Scherf et al.
# Submitted via: ExactAudioCopy v1.0b1
#
DISCID=a812840d
DTITLE=Various Artist - Tinh khuc Chuyen tuyen chon (Disk 2)
DYEAR=2010
DGENRE=Blues
TTITLE0=Tuong Nguyen and Yen Phuong - Chuyen tinh ngheo
TTITLE1=Phi Nhung - Chuyen co gai hai hoa muoi gio
TTITLE2=Manh Quynh - Chuyen tinh cua toi
TTITLE3=Truong Vu and Phi Nhung - Chuyen nguoi len xe hoa
TTITLE4=Huong Lan - Chuyen hop tan
TTITLE5=Nhu Quynh - Chuyen nguoi trinh nu ten Thi
TTITLE6=Various Artist - Lien khuc
TTITLE7=Bang Tam - Chuyen mot chiec cau da gay
TTITLE8=Manh Quynh - Chuyen tinh trai mong toi
TTITLE9=Nhu Quynh - Chuyen tinh Lan va Diep 3
TTITLE10=Yen Phuong - Chuyen tinh Lan va Diep 1
TTITLE11=Manh Quynh - Chuyen tinh ong buom
TTITLE12=Phi Nhung - Chuyen tinh tren thao nguyen
EXTD=
EXTT0=
EXTT1=
EXTT2=
EXTT3=
EXTT4=
EXTT5=
EXTT6=
EXTT7=
EXTT8=
EXTT9=
EXTT10=
EXTT11=
EXTT12=
PLAYORDER=
